<svg width="24" height="24" viewBox="0 0 24 24" fill="none" xmlns="http://www.w3.org/2000/svg">
<g clip-path="url(#clip0_351_10109)">
<path d="M6.5 21H17.5L20.5 10.5L15.5 13L12 6L8.5 13L3.5 10.5L6.5 21Z" stroke="#3385FF" stroke-width="2" stroke-linecap="round" stroke-linejoin="round"/>
<path d="M3.5 10.5C3.89782 10.5 4.27936 10.342 4.56066 10.0607C4.84196 9.77936 5 9.39782 5 9C5 8.60218 4.84196 8.22064 4.56066 7.93934C4.27936 7.65804 3.89782 7.5 3.5 7.5C3.10218 7.5 2.72064 7.65804 2.43934 7.93934C2.15804 8.22064 2 8.60218 2 9C2 9.39782 2.15804 9.77936 2.43934 10.0607C2.72064 10.342 3.10218 10.5 3.5 10.5ZM12 6C12.3978 6 12.7794 5.84196 13.0607 5.56066C13.342 5.27936 13.5 4.89782 13.5 4.5C13.5 4.10218 13.342 3.72064 13.0607 3.43934C12.7794 3.15804 12.3978 3 12 3C11.6022 3 11.2206 3.15804 10.9393 3.43934C10.658 3.72064 10.5 4.10218 10.5 4.5C10.5 4.89782 10.658 5.27936 10.9393 5.56066C11.2206 5.84196 11.6022 6 12 6ZM20.5 10.5C20.8978 10.5 21.2794 10.342 21.5607 10.0607C21.842 9.77936 22 9.39782 22 9C22 8.60218 21.842 8.22064 21.5607 7.93934C21.2794 7.65804 20.8978 7.5 20.5 7.5C20.1022 7.5 19.7206 7.65804 19.4393 7.93934C19.158 8.22064 19 8.60218 19 9C19 9.39782 19.158 9.77936 19.4393 10.0607C19.7206 10.342 20.1022 10.5 20.5 10.5Z" stroke="#3385FF" stroke-width="2"/>
</g>
<defs>
<clipPath id="clip0_351_10109">
<rect width="24" height="24" fill="white"/>
</clipPath>
</defs>
</svg>
