<svg width="20" height="20" viewBox="0 0 20 20" fill="none" xmlns="http://www.w3.org/2000/svg">
<path d="M13.9365 12.344C13.0765 13.833 11.6405 14.688 9.9995 14.688C8.3595 14.688 6.9245 13.834 6.0625 12.344C5.94537 12.1291 5.91688 11.8769 5.98311 11.6413C6.04933 11.4057 6.20503 11.2053 6.41697 11.0829C6.62891 10.9605 6.88031 10.9257 7.11749 10.9861C7.35468 11.0465 7.55888 11.1972 7.6865 11.406C7.9905 11.932 8.6945 12.812 9.9995 12.812C11.3045 12.812 12.0095 11.932 12.3125 11.406C12.3724 11.2961 12.4537 11.1994 12.5515 11.1214C12.6494 11.0434 12.7618 10.9858 12.8823 10.9519C13.0028 10.918 13.1288 10.9086 13.253 10.9242C13.3771 10.9398 13.4969 10.9801 13.6053 11.0427C13.7136 11.1052 13.8084 11.1889 13.8839 11.2886C13.9594 11.3884 14.0143 11.5023 14.0451 11.6235C14.076 11.7448 14.0823 11.871 14.0636 11.9947C14.045 12.1185 14.0018 12.2372 13.9365 12.344ZM18.4365 10C18.4363 11.6686 17.9413 13.2998 17.0141 14.6871C16.0869 16.0744 14.7692 17.1556 13.2275 17.7941C11.6858 18.4325 9.98947 18.5994 8.35291 18.2738C6.71636 17.9481 5.21313 17.1445 4.03329 15.9645C2.85345 14.7845 2.05001 13.2812 1.72455 11.6446C1.39908 10.008 1.56622 8.31168 2.20483 6.77008C2.84343 5.22848 3.92483 3.91086 5.31226 2.98383C6.6997 2.05681 8.33087 1.56201 9.9995 1.56201C12.2367 1.56439 14.3815 2.45416 15.9634 4.03608C17.5454 5.61799 18.4341 7.76285 18.4365 10ZM16.5615 10C16.5613 8.70221 16.1763 7.43362 15.4551 6.35463C14.734 5.27565 13.709 4.43474 12.51 3.93823C11.3109 3.44172 9.99155 3.31191 8.71871 3.56522C7.44587 3.81853 6.27673 4.44358 5.35912 5.36133C4.4415 6.27908 3.81663 7.44832 3.56352 8.7212C3.3104 9.99407 3.44041 11.3134 3.9371 12.5124C4.43379 13.7114 5.27486 14.7362 6.35396 15.4572C7.43305 16.1782 8.70171 16.563 9.9995 16.563C11.7396 16.5612 13.4078 15.8691 14.6382 14.6387C15.8686 13.4083 16.5597 11.7401 16.5615 10ZM7.1865 9.68701C7.51802 9.68701 7.83597 9.55532 8.07039 9.3209C8.30481 9.08647 8.4365 8.76853 8.4365 8.43701C8.4365 8.10549 8.30481 7.78755 8.07039 7.55313C7.83597 7.31871 7.51802 7.18701 7.1865 7.18701C6.85498 7.18701 6.53704 7.31871 6.30262 7.55313C6.0682 7.78755 5.9365 8.10549 5.9365 8.43701C5.9365 8.76853 6.0682 9.08647 6.30262 9.3209C6.53704 9.55532 6.85498 9.68701 7.1865 9.68701ZM12.8115 7.18701C12.4799 7.18701 12.1618 7.31876 11.9273 7.55328C11.6928 7.78779 11.561 8.10586 11.561 8.43751C11.561 8.76916 11.6928 9.08723 11.9273 9.32175C12.1618 9.55626 12.4799 9.68801 12.8115 9.68801C13.143 9.68801 13.461 9.55631 13.6954 9.32189C13.9298 9.08747 14.0615 8.76953 14.0615 8.43801C14.0615 8.10649 13.9298 7.78855 13.6954 7.55413C13.461 7.31971 13.143 7.18801 12.8115 7.18801V7.18701Z" fill="#94A3B8"/>
</svg>
